<svg width="132" height="73" viewBox="0 0 132 73" fill="none" xmlns="http://www.w3.org/2000/svg">
<path d="M2.54883 64H12.5332C17.4023 64 20.8828 61.5215 20.8828 57.2324C20.8828 53.6289 18.4219 51.6602 15.5391 51.3789V51.168C17.9121 50.5879 19.6523 48.8301 19.6523 45.9121C19.6523 42.2383 16.8398 40.0059 12.5508 40.0059H2.54883V64ZM7.25977 43.5742H11.4609C13.6758 43.5742 14.9766 44.7695 14.9766 46.7207C14.9766 48.8125 13.5703 49.9902 10.3887 49.9902H7.25977V43.5742ZM7.25977 53.2949H11.7598C14.5371 53.2949 16.0488 54.6836 16.0488 56.9512C16.0488 59.2363 14.5195 60.4316 10.7754 60.4316H7.25977V53.2949ZM32.2031 45.0156C26.7012 45.0156 23.6602 48.7949 23.6602 53.9453V55.3164C23.6602 60.7305 26.7012 64.334 32.2031 64.334C37.7051 64.334 40.7285 60.7305 40.7285 55.2988V53.9277C40.7285 48.7773 37.6875 45.0156 32.2031 45.0156ZM32.2031 48.6016C34.875 48.6016 36.0527 50.8867 36.0527 53.9277V55.3691C36.0527 58.3223 34.8926 60.7305 32.2031 60.7305C29.4961 60.7305 28.3359 58.3047 28.3359 55.3691V53.9277C28.3359 50.9043 29.5312 48.6016 32.2031 48.6016ZM54.8262 64.2461C59.1504 64.2461 61.9453 61.0469 61.9453 55.4746V53.8398C61.9453 48.1445 59.0801 45.1035 54.8438 45.1035C52.3828 45.1035 50.3086 46.3164 49.4824 48.0566H49.2891V38.7402H44.6484V64H49.2188V61.1172H49.3945C50.3262 63.0332 52.1895 64.2461 54.8262 64.2461ZM53.3672 60.5547C50.8535 60.5547 49.2539 58.7441 49.2539 55.2988V54.0332C49.2539 50.5879 50.8711 48.8125 53.3672 48.8125C55.6348 48.8125 57.1992 50.6055 57.1992 54.0332V55.3164C57.1992 58.7266 55.6348 60.5547 53.3672 60.5547ZM76.0605 64.2461C80.3848 64.2461 83.1797 61.0469 83.1797 55.4746V53.8398C83.1797 48.1445 80.3145 45.1035 76.0781 45.1035C73.6172 45.1035 71.543 46.3164 70.7168 48.0566H70.5234V38.7402H65.8828V64H70.4531V61.1172H70.6289C71.5605 63.0332 73.4238 64.2461 76.0605 64.2461ZM74.6016 60.5547C72.0879 60.5547 70.4883 58.7441 70.4883 55.2988V54.0332C70.4883 50.5879 72.1055 48.8125 74.6016 48.8125C76.8691 48.8125 78.4336 50.6055 78.4336 54.0332V55.3164C78.4336 58.7266 76.8691 60.5547 74.6016 60.5547ZM102.85 45.3496H97.9453L93.8848 59.8164H93.709L89.7363 45.3496H84.6211L91.0898 64.0352L90.9141 64.7031C90.5801 66.4258 89.6133 67.1113 87.5039 67.1113C86.9414 67.1113 86.291 67.0586 85.9922 67.0059V70.3457C86.5547 70.4688 87.5566 70.5391 88.3477 70.5391C92.3906 70.5391 94.6406 69.0449 96.2578 64.7559L96.7324 63.4727C96.7676 63.3672 101.549 49.5684 102.85 45.3496ZM102.691 61.6445C102.691 63.1562 103.922 64.3867 105.416 64.3867C106.91 64.3867 108.141 63.1562 108.141 61.6445C108.141 60.1504 106.91 58.9199 105.416 58.9199C103.922 58.9199 102.691 60.1504 102.691 61.6445Z" fill="white"/>
<circle cx="118.658" cy="13.3421" r="13.3421" fill="#6CD4FF"/>
<circle cx="100.184" cy="32.5" r="7.18421" fill="#FF8C61"/>
<circle cx="115.237" cy="46.8684" r="5.13158" fill="#823DC8"/>
</svg>
